HIERARCHY
ROOT Hips
{
	OFFSET 0.00000 0.00000 0.00000
	CHANNELS 6 Xposition Yposition Zposition Zrotation Yrotation Xrotation 
	JOINT LHipJoint
	{
		OFFSET 0 0 0
		CHANNELS 3 Zrotation Yrotation Xrotation
		JOINT LeftUpLeg
		{
			OFFSET 1.64549 -1.70879 0.84566
			CHANNELS 3 Zrotation Yrotation Xrotation
			JOINT LeftLeg
			{
				OFFSET 2.24963 -6.18082 0.00000
				CHANNELS 3 Zrotation Yrotation Xrotation
				JOINT LeftFoot
				{
					OFFSET 2.71775 -7.46697 0.00000
					CHANNELS 3 Zrotation Yrotation Xrotation
					JOINT LeftToeBase
					{
						OFFSET 0.18768 -0.51564 2.24737
						CHANNELS 3 Zrotation Yrotation Xrotation
						End Site
						{
							OFFSET 0.00000 -0.00000 1.15935
						}
					}
				}
			}
		}
	}
	JOINT RHipJoint
	{
		OFFSET 0 0 0
		CHANNELS 3 Zrotation Yrotation Xrotation
		JOINT RightUpLeg
		{
			OFFSET -1.58830 -1.70879 0.84566
			CHANNELS 3 Zrotation Yrotation Xrotation
			JOINT RightLeg
			{
				OFFSET -2.25006 -6.18201 0.00000
				CHANNELS 3 Zrotation Yrotation Xrotation
				JOINT RightFoot
				{
					OFFSET -2.72829 -7.49593 0.00000
					CHANNELS 3 Zrotation Yrotation Xrotation
					JOINT RightToeBase
					{
						OFFSET -0.21541 -0.59185 2.10643
						CHANNELS 3 Zrotation Yrotation Xrotation
						End Site
						{
							OFFSET -0.00000 -0.00000 1.09838
						}
					}
				}
			}
		}
	}
	JOINT LowerBack
	{
		OFFSET 0 0 0
		CHANNELS 3 Zrotation Yrotation Xrotation
		JOINT Spine
		{
			OFFSET 0.03142 2.10496 -0.11038
			CHANNELS 3 Zrotation Yrotation Xrotation
			JOINT Spine1
			{
				OFFSET -0.01863 2.10897 -0.06956
				CHANNELS 3 Zrotation Yrotation Xrotation
				JOINT Neck
				{
					OFFSET 0 0 0
					CHANNELS 3 Zrotation Yrotation Xrotation
					JOINT Neck1
					{
						OFFSET -0.02267 1.73238 0.00451
						CHANNELS 3 Zrotation Yrotation Xrotation
						JOINT Head
						{
							OFFSET -0.05808 1.54724 -0.61749
							CHANNELS 3 Zrotation Yrotation Xrotation
							End Site
							{
								OFFSET -0.01396 1.71468 -0.21082
							}
						}
					}
				}
				JOINT LeftShoulder
				{
					OFFSET 0 0 0
					CHANNELS 3 Zrotation Yrotation Xrotation
					JOINT LeftArm
					{
						OFFSET 3.44898 0.50298 0.21920
						CHANNELS 3 Zrotation Yrotation Xrotation
						JOINT LeftForeArm
						{
							OFFSET 5.41917 -0.00000 -0.00000
							CHANNELS 3 Zrotation Yrotation Xrotation
							JOINT LeftHand
							{
								OFFSET 2.44373 -0.00000 0.00000
								CHANNELS 3 Zrotation Yrotation Xrotation
								JOINT LeftFingerBase
								{
									OFFSET 0 0 0
									CHANNELS 3 Zrotation Yrotation Xrotation
									JOINT LeftHandIndex1
									{
										OFFSET 0.72750 -0.00000 0.00000
										CHANNELS 3 Zrotation Yrotation Xrotation
										End Site
										{
											OFFSET 0.58653 -0.00000 0.00000
										}
									}
								}
								JOINT LThumb
								{
									OFFSET 0 0 0
									CHANNELS 3 Zrotation Yrotation Xrotation
									End Site
									{
										OFFSET 0.59549 -0.00000 0.59549
									}
								}
							}
						}
					}
				}
				JOINT RightShoulder
				{
					OFFSET 0 0 0
					CHANNELS 3 Zrotation Yrotation Xrotation
					JOINT RightArm
					{
						OFFSET -3.23015 0.55830 0.31051
						CHANNELS 3 Zrotation Yrotation Xrotation
						JOINT RightForeArm
						{
							OFFSET -5.58976 -0.00010 0.00014
							CHANNELS 3 Zrotation Yrotation Xrotation
							JOINT RightHand
							{
								OFFSET -2.48060 -0.00000 0.00000
								CHANNELS 3 Zrotation Yrotation Xrotation
								JOINT RightFingerBase
								{
									OFFSET 0 0 0
									CHANNELS 3 Zrotation Yrotation Xrotation
									JOINT RightHandIndex1
									{
										OFFSET -0.81601 -0.00000 0.00000
										CHANNELS 3 Zrotation Yrotation Xrotation
										End Site
										{
											OFFSET -0.65789 -0.00000 0.00000
										}
									}
								}
								JOINT RThumb
								{
									OFFSET 0 0 0
									CHANNELS 3 Zrotation Yrotation Xrotation
									End Site
									{
										OFFSET -0.66793 -0.00000 0.66793
									}
								}
							}
						}
					}
				}
			}
		}
	}
}
MOTION
Frames: 10
Frame Time: 0.033333
4.8569 16.3910 -17.5167 -4.8178 -0.8216 30.7173 0.0000 0.0000 0.0000 -35.7475 10.0257 -46.3664 8.4965 16.4725 54.3319 -3.1961 45.8343 21.2764 0.0905 1.9401 5.3402 0.0000 0.0000 0.0000 30.6382 13.4283 -55.8609 -3.3874 -11.2973 33.2891 -0.0107 -13.5351 -19.3629 -0.0489 -1.4277 3.9265 2.8353 -0.2446 11.1485 12.3015 1.9958 -8.8729 12.5304 1.7459 -17.1152 1.6819 2.8521 -12.7042 -5.0663 3.7944 1.1236 -1.7166 1.7071 2.7436 -0.0000 -0.0000 0.0000 -136.9303 -66.4175 63.1511 7.3551 -12.5022 -0.8068 -0.0000 -0.0000 50.6894 -12.8336 26.0134 -5.7057 -7.1250 0.0000 -0.0000 -42.0365 51.0200 -7.3515 -0.0000 -0.0000 0.0000 77.5188 68.5881 -129.5974 -4.6746 8.0346 -0.3285 0.0000 0.0000 149.7470 -5.1300 17.7230 -1.5655 7.1250 -0.0000 -0.0000 14.9832 -12.6235 11.7654
4.7766 16.3061 -17.5024 -4.5850 -1.5536 30.0048 0.0000 0.0000 0.0000 -35.9159 9.2275 -46.9365 9.1829 16.9240 56.7205 -6.7567 46.3512 6.0295 1.3302 7.3036 20.6179 0.0000 0.0000 0.0000 29.1371 15.7903 -55.1536 -3.7221 -11.7811 34.9621 -0.0927 -14.8597 -22.0558 -0.1517 -2.5095 6.9160 1.1327 -0.3031 10.8729 11.9019 1.4414 -8.3819 13.0864 1.5866 -16.2004 2.2374 2.9079 -11.8366 -4.5449 3.7837 1.4893 -1.6503 1.7340 2.7051 -0.0000 0.0000 0.0000 -141.0681 -59.1471 89.6232 8.4489 -14.2779 -1.0601 -0.0000 -0.0000 29.5854 -11.4605 30.2689 -5.8348 -7.1250 0.0000 -0.0000 -44.3641 54.5321 -12.1869 -0.0000 0.0000 0.0000 103.2603 63.3786 -103.9715 -4.2059 7.2394 -0.2662 0.0000 0.0000 128.6290 -11.2682 19.9898 -3.8965 7.1250 -0.0000 -0.0000 11.0063 -9.9222 9.1196
4.6839 16.1910 -17.4656 -4.7186 -2.2585 28.5732 0.0000 0.0000 0.0000 -36.2282 9.4884 -47.9986 10.3947 17.6259 60.7996 -7.1670 43.9996 -2.4423 2.4543 9.7544 28.1850 0.0000 0.0000 0.0000 29.2898 16.6932 -54.3161 -4.1515 -12.3593 37.0151 -0.0232 -16.0460 -22.9878 -0.0386 -1.2683 3.4874 -0.4061 -0.2712 10.8186 11.6852 1.1124 -7.8819 13.7577 1.5313 -15.4893 1.8916 2.9175 -9.2485 -3.3180 3.8251 1.7849 -1.2064 1.8202 2.2794 -0.0000 0.0000 0.0000 -144.1530 -51.3193 98.4184 9.2316 -15.5287 -1.2614 -0.0000 -0.0000 23.5494 -11.2142 29.8359 -5.6334 -7.1250 0.0000 -0.0000 -43.7644 54.2526 -11.6419 -0.0000 0.0000 0.0000 118.3127 54.5394 -46.1835 -3.0030 5.1847 -0.1360 0.0000 0.0000 61.7372 -8.8716 14.4872 -2.2361 7.1250 -0.0000 -0.0000 12.6389 -15.5567 9.0112
4.6179 16.0806 -17.3315 -4.6396 -1.8149 26.6961 0.0000 0.0000 0.0000 -36.8105 10.3294 -47.9030 11.4627 18.1542 64.2754 -4.0233 33.4200 -6.8379 1.0862 6.6238 18.6055 0.0000 0.0000 0.0000 30.4432 14.5259 -54.4233 -4.9440 -13.3204 40.5802 -0.4576 -14.2720 -24.6917 -0.0828 -1.8566 5.1096 -0.4931 -0.5729 9.8228 11.2680 0.4668 -6.9511 13.1972 1.0319 -13.5232 0.8247 2.7313 -8.8366 -1.1913 3.6172 3.2037 -0.3462 1.7701 2.5930 -0.0000 0.0000 0.0000 -147.3211 -44.9948 98.2618 9.0486 -15.2378 -1.2129 -0.0000 -0.0000 23.1228 -17.8066 26.1620 -8.0605 -7.1250 0.0000 -0.0000 -46.2438 50.3019 -7.4518 -0.0000 0.0000 0.0000 127.1824 44.9460 5.1053 -5.0978 8.7493 -0.3902 0.0000 -0.0000 -6.9895 -10.3390 6.2450 -1.1369 7.1250 -0.0000 -0.0000 12.0701 -23.6516 6.3508
4.5347 15.9048 -17.2399 -4.9512 -1.4541 24.2374 0.0000 0.0000 0.0000 -36.7899 10.9989 -48.2011 12.5746 18.6232 67.7991 -2.2331 25.3332 -9.1042 0.0166 -0.8316 -2.2856 0.0000 0.0000 0.0000 31.5048 13.5442 -53.7126 -5.7400 -14.1716 43.9292 -0.8465 -14.2300 -27.7129 -0.1439 -2.4450 6.7372 0.1090 -0.8035 8.8665 10.4764 -0.0207 -5.7380 11.7168 0.5257 -11.3483 2.4704 2.2989 -7.0085 -2.0105 2.9511 3.9043 -0.9444 1.4436 2.5317 0.0000 0.0000 0.0000 -145.4032 -43.0914 114.4206 12.0304 -19.8502 -2.1126 -0.0000 -0.0000 8.9071 -27.1397 27.4751 -13.3057 -7.1250 0.0000 -0.0000 -54.4483 49.6734 -8.5851 0.0000 0.0000 0.0000 130.1807 34.2368 38.5786 -10.8575 18.0694 -1.7315 0.0000 -0.0000 -47.7254 -16.7302 -2.5406 0.7634 7.1250 -0.0000 -0.0000 7.9695 -32.5620 2.4480
4.4541 15.6973 -17.1425 -5.2433 0.0525 21.3608 0.0000 0.0000 0.0000 -36.5414 11.8743 -47.7118 13.3302 18.8982 70.1480 -0.7606 17.4077 -15.5475 0.7555 -5.5514 -15.4881 0.0000 0.0000 0.0000 32.2745 12.4078 -52.9933 -6.8012 -15.1622 48.1186 -0.7537 -15.7117 -28.5743 -0.0207 -0.9289 2.5532 0.5649 -0.7797 9.3211 10.4110 0.0217 -4.7990 11.2878 0.4507 -10.5524 1.1419 1.7198 -4.6013 -1.0843 2.2695 3.3389 -0.4656 1.1208 1.8504 -0.0000 0.0000 0.0000 -142.8374 -43.8425 126.8501 18.6721 -29.0092 -4.8708 -0.0000 -0.0000 8.0241 -36.6307 24.2918 -17.0069 -7.1250 0.0000 -0.0000 -57.5939 45.8085 -1.7706 -0.0000 0.0000 0.0000 129.6613 31.4430 60.2611 -13.7866 22.4289 -2.7462 0.0000 -0.0000 -50.0116 -17.8774 -7.1955 2.3136 7.1250 -0.0000 -0.0000 7.5898 -37.4390 1.4222
4.3523 15.4678 -17.0782 -5.5907 1.8917 18.8942 0.0000 0.0000 0.0000 -36.2867 12.8119 -47.7676 13.7447 19.0348 71.4232 0.4150 12.3490 -22.1468 1.1852 -6.9088 -19.4456 0.0000 0.0000 0.0000 33.0479 11.7109 -52.6473 -7.8488 -16.0069 52.0164 -1.0655 -16.4785 -31.4578 -0.0953 -1.9909 5.4804 1.8513 -0.4969 9.8269 9.8337 0.5643 -4.6066 9.7402 0.5949 -10.7039 -0.7050 0.8103 -0.8407 1.5234 1.0517 2.7694 0.5945 0.5360 0.9736 0.0000 -0.0000 0.0000 -137.7404 -49.3756 140.4244 33.3671 -43.6103 -13.6747 -0.0000 -0.0000 17.4068 -38.3722 13.6047 -10.5504 -7.1250 0.0000 -0.0000 -49.9376 36.8889 15.2039 0.0000 -0.0000 0.0000 122.3801 31.7984 87.2753 -21.1595 32.0141 -6.1343 0.0000 -0.0000 -39.5121 -8.4982 -5.8025 0.8655 7.1250 -0.0000 -0.0000 15.1148 -35.4950 3.6346
4.2489 15.3120 -16.9889 -5.9164 4.7986 16.3195 0.0000 0.0000 0.0000 -35.8691 14.1110 -47.1835 13.6289 18.9976 71.0679 0.6351 12.7226 -24.5200 3.9961 -12.1553 -36.2835 0.0000 0.0000 0.0000 34.1957 9.6217 -51.7885 -8.5374 -16.5006 54.4761 -1.6632 -16.4011 -34.9172 -0.2793 -3.3994 9.3927 3.9083 -0.5082 10.0465 9.3411 0.7694 -4.0344 7.8826 0.5079 -10.1761 -2.0349 0.1267 1.2032 3.0358 0.1004 2.5210 1.2740 0.0493 0.5709 -0.0000 0.0000 0.0000 -130.0744 -57.5069 144.2267 61.9315 -56.8030 -35.9529 -0.0000 -0.0000 42.2947 -31.1309 -0.4617 0.2788 -7.1250 0.0000 -0.0000 -40.0601 26.2463 24.5847 -0.0000 0.0000 0.0000 113.1245 36.2961 103.5392 -33.7880 43.9270 -13.9658 0.0000 -0.0000 -11.8275 -0.6210 1.6913 -0.0183 7.1250 -0.0000 -0.0000 19.7861 -28.0355 8.6483
4.1033 15.2064 -16.9388 -5.7141 7.8476 15.3780 0.0000 0.0000 0.0000 -36.0057 14.2162 -47.1718 13.1500 18.8357 69.5909 1.0901 13.4468 -28.7000 4.6471 -12.9749 -39.2748 0.0000 0.0000 0.0000 34.4431 8.6659 -52.6787 -9.1088 -16.8772 56.4656 -1.8321 -17.3701 -36.6803 -0.3656 -3.8838 10.7501 4.7843 0.0153 8.9395 9.2293 1.4188 -3.4708 7.0543 0.7518 -8.9383 -4.0975 -0.7674 1.4839 4.4143 -1.1309 2.2474 2.0821 -0.5787 0.4992 0.0000 0.0000 0.0000 -110.0186 -67.3026 133.4254 104.5456 -59.1853 -72.5624 -0.0000 -0.0000 53.4554 -14.3360 -2.2446 0.5735 -7.1250 0.0000 -0.0000 -30.0837 26.8911 15.3037 0.0000 0.0000 0.0000 100.5522 43.1474 109.4439 -52.3192 53.8891 -28.0372 0.0000 0.0000 15.5862 -4.1198 8.4372 -0.6055 7.1250 -0.0000 -0.0000 16.3216 -21.6277 9.5424
3.9130 15.2524 -16.8584 -5.1271 12.8775 15.4551 0.0000 0.0000 0.0000 -35.8557 13.4309 -46.0860 12.5677 18.6205 67.7774 1.4609 13.1902 -30.9370 3.6450 -11.6724 -34.5828 0.0000 0.0000 0.0000 35.1122 6.1513 -53.6074 -8.8798 -16.7297 55.6735 -1.7837 -19.0488 -37.9419 -0.3584 -3.8459 10.6434 6.0002 0.6511 8.9801 8.4947 2.5683 -4.9685 5.4150 1.2148 -10.6477 -5.4361 -2.6112 3.6500 6.2556 -3.7121 1.9556 2.9723 -1.9022 0.2207 -0.0000 0.0000 0.0000 -69.8122 -67.7179 101.5502 126.1190 -54.4457 -90.6965 -0.0000 -0.0000 46.7812 9.6478 7.4121 1.2563 -7.1250 0.0000 -0.0000 -14.5043 37.1366 2.8803 -0.0000 0.0000 0.0000 83.7699 44.8082 103.4218 -77.1793 59.3697 -48.9205 0.0000 0.0000 24.6510 -7.9556 10.5341 -1.4635 7.1250 -0.0000 -0.0000 13.4620 -19.4882 8.4339
